<?xml version="1.0" standalone="no"?><!DOCTYPE svg PUBLIC "-//W3C//DTD SVG 1.1//EN" "http://www.w3.org/Graphics/SVG/1.1/DTD/svg11.dtd"><svg t="1611413967744" class="icon" viewBox="0 0 1024 1024" version="1.1" xmlns="http://www.w3.org/2000/svg" p-id="2226" xmlns:xlink="http://www.w3.org/1999/xlink" width="200" height="200"><defs><style type="text/css"></style></defs><path d="M739.555328 568.911872c94.265344 0 170.667008 76.34432 170.667008 170.665984 0 94.265344-76.401664 170.667008-170.667008 170.667008-94.26432 0-170.665984-76.401664-170.665984-170.667008 0-94.32064 76.40064-170.665984 170.665984-170.665984z m56.889344-455.134208c31.459328 0 56.88832 25.428992 56.88832 56.889344v372.905984C819.712 524.004352 781.19936 512 739.556352 512 613.888 512 512 613.888 512 739.555328c0 68.323328 30.777344 128.96768 78.507008 170.667008H227.555328c-31.459328 0-56.88832-25.428992-56.88832-56.889344V170.667008c0-31.460352 25.428992-56.889344 56.88832-56.889344zM775.05536 645.48864l-0.28672 0.279552-35.214336 35.158016-35.214336-35.158016c-8.361984-8.30464-21.844992-8.30464-30.150656 0-8.2688 8.2688-8.361984 21.542912-0.278528 29.87008l0.278528 0.2816 27.136 27.136h-25.771008c-11.776 0-21.332992 9.556992-21.332992 21.332992 0 11.657216 9.365504 21.14048 20.97664 21.32992l0.356352 0.003072h42.667008v28.444672h-42.667008c-11.776 0-21.332992 9.558016-21.332992 21.334016 0 11.656192 9.365504 21.139456 20.97664 21.32992l0.356352 0.003072h42.667008V841.0112c0 11.776 9.556992 21.332992 21.332992 21.332992 11.657216 0 21.14048-9.36448 21.32992-20.97664l0.004096-0.356352v-24.177664h42.665984c11.776 0 21.334016-9.556992 21.334016-21.332992 0-11.657216-9.365504-21.14048-20.977664-21.32992l-0.356352-0.004096h-42.665984v-28.444672h42.665984c11.776 0 21.334016-9.556992 21.334016-21.332992 0-11.657216-9.365504-21.139456-20.977664-21.32992l-0.356352-0.003072h-25.769984l27.136-27.136c8.361984-8.305664 8.361984-21.788672 0-30.15168-8.21248-8.211456-21.48352-8.30464-29.86496-0.279552zM426.667008 512H312.889344c-15.702016 0-28.444672 12.742656-28.444672 28.444672 0 15.700992 12.742656 28.444672 28.444672 28.444672h113.77664c15.702016 0 28.444672-12.74368 28.444672-28.444672C455.110656 524.742656 442.368 512 426.667008 512z m113.77664-113.777664H312.890368c-15.702016 0-28.444672 12.742656-28.444672 28.444672 0 15.700992 12.742656 28.443648 28.444672 28.443648h227.555328c15.700992 0 28.444672-12.742656 28.444672-28.443648 0-15.702016-12.74368-28.444672-28.444672-28.444672zM654.22336 284.444672H312.889344c-15.702016 0-28.444672 12.742656-28.444672 28.444672 0 15.700992 12.742656 28.443648 28.444672 28.443648h341.332992c15.700992 0 28.444672-12.742656 28.444672-28.443648 0-15.702016-12.74368-28.444672-28.444672-28.444672z" fill="#323233" p-id="2227"></path></svg>